<?xml version="1.0" encoding="utf-8"?>
<!-- Generator: Adobe Illustrator 23.0.1, SVG Export Plug-In . SVG Version: 6.00 Build 0)  -->
<svg version="1.1" id="Capa_1" xmlns="http://www.w3.org/2000/svg" xmlns:xlink="http://www.w3.org/1999/xlink" x="0px" y="0px"
	 viewBox="0 0 512 512" style="enable-background:new 0 0 512 512;" xml:space="preserve">
<style type="text/css">
	.st0{fill:#0450BC;}
	.st1{fill:#31AEF4;}
</style>
<g>
	<g>
		<g>
			<path class="st0" d="M437.3,245.3c5.9,0,10.7-4.8,10.7-10.7V192h32c5.9,0,10.7-4.8,10.7-10.7v-42.7c0-5.9-4.8-10.7-10.7-10.7
				h-53.3V85.3h15.5c4.4,0,8.4-2.7,9.9-6.8c1.6-4.1,0.5-8.8-2.8-11.7C402,23.7,340.9,0,277.3,0c-141.2,0-256,114.8-256,256
				s114.8,256,256,256c63.6,0,124.7-23.7,172-66.8c3.3-3,4.4-7.6,2.8-11.7s-5.5-6.8-9.9-6.8h-15.5v-21.3H480
				c5.9,0,10.7-4.8,10.7-10.7v-64c0-5.9-4.8-10.7-10.7-10.7h-74.7v-53.3H43.2c-0.2-3.6-0.5-7.1-0.5-10.7s0.4-7.1,0.5-10.7H437.3
				L437.3,245.3z M341.3,128H384c5.9,0,10.7,4.8,10.7,10.7s-4.8,10.7-10.7,10.7h-42.7c-5.9,0-10.7-4.8-10.7-10.7
				C330.7,132.8,335.4,128,341.3,128z M224,64c41.2,0,74.7,33.5,74.7,74.7s-33.5,74.7-74.7,74.7s-74.7-33.5-74.7-74.7
				C149.3,97.5,182.8,64,224,64z M96,128h21.3c5.9,0,10.7,4.8,10.7,10.7s-4.8,10.7-10.7,10.7H96c-5.9,0-10.7-4.8-10.7-10.7
				S90.1,128,96,128z M330.7,320h32c5.9,0,10.7,4.8,10.7,10.7s-4.8,10.7-10.7,10.7h-32c-5.9,0-10.7-4.8-10.7-10.7
				S324.8,320,330.7,320z M138.7,384H96c-5.9,0-10.7-4.8-10.7-10.7s4.8-10.7,10.7-10.7h42.7c5.9,0,10.7,4.8,10.7,10.7
				C149.3,379.2,144.6,384,138.7,384z M85.3,298.7h96c5.9,0,10.7,4.8,10.7,10.7s-4.8,10.7-10.7,10.7h-96c-5.9,0-10.7-4.8-10.7-10.7
				C74.7,303.4,79.4,298.7,85.3,298.7z"/>
		</g>
	</g>
</g>
<circle class="st1" cx="222" cy="138.9" r="32"/>
</svg>
